<?xml version="1.0" standalone="no"?>
<!DOCTYPE svg PUBLIC "-//W3C//DTD SVG 20010904//EN"
 "http://www.w3.org/TR/2001/REC-SVG-20010904/DTD/svg10.dtd">
<svg version="1.0" xmlns="http://www.w3.org/2000/svg"
 width="1024.000000pt" height="400.000000pt" viewBox="0 0 1024.000000 400.000000"
 preserveAspectRatio="xMidYMid meet">
<metadata>
Created by potrace 1.16, written by Peter Selinger 2001-2019
</metadata>
<g transform="translate(0.000000,400.000000) scale(0.100000,-0.100000)"
fill="#000000" stroke="none">
<path d="M495 3199 c-52 -28 -349 -332 -375 -385 -26 -52 -25 -112 2 -188 20
-57 34 -74 227 -263 l206 -202 -207 -208 c-115 -118 -215 -227 -227 -251 -12
-23 -21 -60 -21 -84 0 -45 28 -132 55 -174 25 -39 324 -328 358 -346 41 -22
145 -23 195 -2 23 9 113 91 247 225 116 115 215 209 220 209 6 0 98 -88 205
-196 236 -238 259 -254 352 -254 49 0 80 6 108 20 45 23 346 325 372 373 22
41 23 145 2 195 -9 23 -91 113 -225 247 -115 116 -209 215 -209 220 0 6 93
102 206 215 113 113 214 222 225 242 26 51 26 155 -1 208 -24 47 -318 339
-386 382 -67 43 -142 49 -205 18 -27 -14 -128 -105 -258 -234 l-213 -211 -187
192 c-219 225 -274 266 -365 270 -47 3 -70 -2 -101 -18z m1218 -15 c4 -4 -17
-18 -46 -31 -40 -19 -102 -73 -273 -244 -121 -120 -227 -219 -235 -219 -7 0
94 108 226 239 180 179 249 242 275 249 45 13 46 13 53 6z"/>
<path d="M3240 2939 c-205 -12 -359 -53 -555 -148 -338 -165 -528 -412 -501
-653 8 -69 45 -179 83 -250 80 -147 309 -305 563 -388 167 -55 284 -72 521
-77 330 -8 517 22 704 111 202 96 303 216 324 382 17 137 -16 237 -89 267
l-25 10 28 10 27 11 1 120 c1 88 3 113 10 91 7 -24 40 -54 153 -135 l145 -105
0 -180 1 -180 -151 -110 c-194 -140 -194 -139 -165 -167 8 -8 16 -23 18 -34 2
-11 15 -21 33 -25 39 -9 1138 -11 1188 -2 37 6 38 6 35 47 l-3 41 -182 113
-183 114 0 82 c0 45 7 105 15 134 27 91 115 182 176 182 65 0 74 -26 38 -111
-23 -52 -23 -51 11 -119 11 -23 81 -31 230 -28 123 3 140 5 185 29 30 15 62
42 79 67 26 37 30 53 35 136 l6 95 63 -45 62 -45 0 -207 c0 -225 8 -267 64
-352 33 -51 133 -115 220 -143 62 -19 93 -22 236 -22 186 0 246 14 348 81 l52
34 9 -22 c5 -13 12 -31 15 -40 3 -11 21 -18 58 -23 79 -9 2285 -1 2295 8 10
11 17 441 8 513 -4 32 -11 54 -18 54 -7 0 -20 9 -30 20 -9 11 -23 20 -31 20
-8 0 -79 -70 -158 -155 l-143 -155 -92 0 c-51 0 -93 3 -93 6 0 3 137 145 305
315 281 286 305 314 305 345 0 24 -5 37 -17 41 -10 4 -22 13 -28 20 -8 11
-145 13 -745 11 l-735 -3 -3 -249 c-1 -160 1 -253 8 -260 5 -5 10 -20 10 -32
0 -26 36 -39 72 -25 13 5 82 72 154 150 l129 141 69 0 68 0 -193 -202 c-107
-112 -241 -251 -299 -310 l-105 -106 -112 84 -113 84 0 334 c0 184 -3 341 -6
350 -3 9 -12 16 -19 16 -7 0 -19 7 -26 16 -12 15 -51 16 -414 9 -220 -4 -422
-11 -450 -15 -39 -6 -52 -5 -58 6 -9 16 -169 18 -586 5 -229 -7 -255 -10 -267
-26 -13 -17 -16 -17 -51 -2 -67 28 -116 37 -215 37 -134 0 -217 -31 -305 -114
l-33 -30 0 52 c0 46 -3 54 -24 62 -13 5 -27 14 -31 21 -6 8 -96 10 -369 4
-198 -4 -382 -11 -408 -15 l-48 -7 0 184 c0 166 -2 184 -17 190 -10 3 -26 15
-36 25 -18 19 -20 18 -65 -8 -26 -15 -75 -46 -110 -69 l-62 -42 -68 32 c-208
99 -442 139 -722 124z m170 -38 c-8 -5 -67 -11 -130 -14 -261 -12 -495 -89
-719 -234 -80 -52 -205 -167 -264 -243 l-28 -35 21 42 c48 101 213 242 386
330 170 87 330 134 517 152 114 11 235 12 217 2z m335 -350 c165 -43 332 -147
430 -267 42 -52 44 -58 30 -74 -8 -9 -15 -34 -15 -56 -1 -124 -146 -245 -365
-304 -63 -17 -119 -23 -265 -27 -202 -6 -317 8 -413 49 -117 51 -183 208 -157
372 27 169 123 271 301 321 81 22 347 15 454 -14z m5567 -61 c-12 -5 -315 -11
-677 -12 -519 -2 -655 0 -655 10 0 9 142 12 678 11 416 0 668 -4 654 -9z
m-2436 -211 l164 -101 0 -90 c0 -107 -12 -154 -52 -203 -47 -57 -96 -76 -181
-73 -103 4 -101 0 -105 316 -2 138 0 252 4 252 3 0 80 -46 170 -101z m1683 4
c-35 -45 -642 -673 -650 -673 -5 0 -9 3 -9 6 0 6 322 345 543 572 61 61 114
112 120 112 5 0 3 -8 -4 -17z m-4373 -291 c-30 -45 -101 -100 -173 -136 -134
-67 -376 -106 -543 -88 l-85 9 131 2 c234 2 420 49 558 142 39 26 85 65 101
87 37 50 47 35 11 -16z"/>
</g>
</svg>
